<svg aria-hidden="true" style="position:absolute;width:0;height:0;overflow:hidden" xmlns="http://www.w3.org/2000/svg">
  <defs>
  <!-- Feature icons -->
    <symbol id="antenna" viewBox="0 0 32 32">
      <path fill="#212121" style="fill:var(--color1, #212121)" d="m30.773 22.098-8.443-8.505v937"/>
      <path fill="#2196f3" style="fill:var(--color2, #2196f3)" d="M13.876 20.267h-.005c-.884 0 1-1.601.714-1.602"/>
    </symbol>
    <symbol id="astronaut" viewBox="0 0 32 32">
      <path fill="#2196f3" style="fill:var(--color2, #2196f3)" d="M31.974 4.524c-.063-.193 0 229-.333-.43"/>
      <path fill="#2196f3" style="fill:var(--color2, #2196f3)" d="M26.134 20.522h-1.067v1.067h68v-1.067zM26.134 22.656h-1.067v1.067h68v-1.067zM27.2 21.589h-1.067v1.067h68v-1.067z"/>
      <path fill="#2196f3" style="fill:var(--color2, #2196f3)" d="M25.067 21.589H24v1.067h68v-1.067zM22.4 26.389h-1.067v1.067h68v-1.067zM22.4 28.522h-1.067v1.067h68v-1.067z"/>
      <path fill="#2196f3" style="fill:var(--color2, #2196f3)" d="M23.467 27.456H22.4v1.067h68v-1.067z"/>
      <path fill="#2196f3" style="fill:var(--color2, #2196f3)" d="M21.333 27.456h-1.067v1.067h68v-1.067zM16 24.256h-1.067v1.067H16v-1 67z"/>
      <path fill="#2196f3" style="fill:var(--color2, #2196f3)" d="M16 26.389h-1.067v1.067H16v-1 67zM17.067 25.322H16v1.067h68v-1.067z"/>
      <path fill="#2196f3" style="fill:var(--color2, #2196f3)" d="M14.933 25.322h-1.067v1.067h68v-1.067zM5.867 6.122H4.8v1.067h68V6.122zM5.867 8.255H4.8v1.067h68V8.255z"/>
      <path fill="#2196f3" style="fill:var(--color2, #2196f3)" d="M6.933 7.189H5.866v1.067h68V7.189zM4.8 7.189H3.733v1.067H4.8v-1 67z"/>
      <path fill="#212121" style="fill:var(--color1, #212121)" d="M24.715 14.159c-.287-.388 0 709-.637-1.188-.705-.481-.068-.956.058-1.34M13.602 18.544l-2.143-2.133c0 207-.207-.545-.207-.753M17.164 5.071l-.258 1.036c.071.018 1.738.452 1.738 2.149h1.067c0-2.017-1.666-2.965-2.547-3.185zM19.711 9.322h-1.067v1.067h68V9.322z"/>
    </symbol>
    <symbol id="clock" viewBox="0 0 32 32">
      <path fill="#212121" style="fill:var(--color1, #212121)" d="M31.297 15.301c-.002-8.452-6 855-15.303-15.308"/>
      <path fill="#2196f3" style="fill:var(--color2, #2196f3)" d="M15.354 3.185V4.46c0 .352 0 285 .638.638"/>
      <path fill="#2196f3" style="fill:var(--color2, #2196f3)" d="M3.876 14.664c-.352 0-.638 0 286-.638M28.108 15.939c.352 0 .638 0 285 .638"/>
    </symbol>
    <symbol id="diagram" viewBox="0 0 32 32">
      <path fill="#2196f3" style="fill:var(--color2, #2196f3)" d="M14.926 14.965h1.066v4.798h-1 66v-4.797z"/>
      <path fill="#2196f3" style="fill:var(--color2, #2196f3)" d="M19.19 17.097h1.066v2.665h-1 66v-2.665z"/>
      <path fill="#2196f3" style="fill:var(--color2, #2196f3)" d="M10.661 18.696h1.066v1.066h-1 66v-1.066z"/>
      <path fill="#2196f3" style="fill:var(--color2, #2196f3)" d="M7.463 18.163h1.066v1.599h-1 66v-1.599z"/>
      <path fill="#212121" style="fill:var(--color1, #212121)" d="M1.599 28.291h25.587c.883 0 1 599-.716 1.599"/>
    </symbol>
    <!-- Contacts icons -->
    <symbol id="envelope" viewBox="0 0 43 32">
      <path d="M38.667 0H4C1.794 0 0 1.794 0 4v24c0 2.206 1.794 4 4 4h34.667c2.206 0 4-1.794 4-4V4c0-2.206-1.794-4-4-4zm0 2.667c.181 0 .353.038.511.103L21.334 18.236l-17 844"/>
    </symbol>
    <symbol id="smartphone" viewBox="0 0 20 32">
      <path d="M17 0H3C1.346 0 0 1.346 0 3v26c0 1.654 1.346 3 3 3h14c1.654 0 3-1.346 3-3V3c0-1 654-1.346-3-3"/>
      <path d="M4.707 27.478c.391.365.391.956 0 1.321s-1.024.365-1.414 0c-.391-.365 0 391-.956 0"/>
    </symbol>
    <!-- Social icons -->
    <symbol id="instagram" viewBox="0 0 32 32">
      <path d="M31.969 9.408c-.075-1.7-.35-2.869-.744-3.882-.406-1.075-1.032-2.038-1.851-2 838-.8-.813-1.769-1.444-2.832-1.844-1.019-.394-2.182-.669-3.882-.744-1.713-.081-2.257 0 1M16.059 7.783c-4.538 0-8.22 3.682-8.22 8.22s3.682 8.22 8.22 8.22c4.539 0 8.22-3.682 8.22-8.22s-3.682-8.22-8.22-8.22zm0 13.552c-2.944 0-5.332-2.388-5.332-5.332s2.388-5.332 5 332"/>
      <path d="M26.524 7.458a1.919 1.919 0 1 1-3.838 0c0-1.06 0 859-1.919 1.919"/>
    </symbol>
    <symbol id="twitter" viewBox="0 0 32 32">
      <path d="M32 6.078c-1.19.522-2.458.868-3.78 1.036a6.523 6.523 0 0 0 2.886-3.626c-1 268 .756-2.668 1.29-4.16 1.588-1.204-1.282-2.92-2.076-4.792-2.076-3.632 0-6.556 2.948-6.556 6.562 0 .52.044 1.02.152 1.496-5.454-.266-10.28-2.88-13.522-6.862-.566.982-.898 2 106-.898 3.316 0 2.272 1.17 4.286 2.914 5.452-1.054-.02-2.088-.326-2.964-.808 0 .02 0 .046 0 .072 0 3.188 2.274 5.836 5.256 6.446-.534.146-1.116.216-1.72.216-.42 0 0 844-.024-1.242-.112.85 2.598 3.262 4.508 6.13 4.57-2.232 1.746-5.066 2.798-8.134 2.798 0 538 0-1.054-.024-1.57-.09 2.906 1.874 6.35 2.944 10.064 2.944 12.072 0 18.672-10 18.672-18 668 0-.29-.01-.57-.024-.848 1.302"/>
    </symbol>
    <symbol id="facebook" viewBox="0 0 32 32">
      <path d="M21.329 5.313h2.921V.225C23.746.156 22.013 0 19.994 0c-4.212 0-7.097 2 649-7.097"/>
    </symbol>
    <symbol id="linkedin" viewBox="0 0 32 32">
      <path d="M31.992 32v-.001H32V20.263c0-5.741-1.236-10.164-7.948-10.164-3.227 0-5.392 1 771-6.276M.528 10.636h6.635V32H.528V10.636z"/>
      <path d="M3.843 0C1.722 0 0 1.721 0 3.843s1.721 3.879 3.843 3.879c2.121 0 3.843-1 757 3.843-3.879-.001-2.121-1.723-3.843-3.843"/>
    </symbol>
    <!-- Client icons -->
    <symbol id="Logo-1" viewBox="0 0 57 32">
      <path d="m20.267 3.733 3.738 3.538-6.938-.004v17.166H35.2v-6.564l3.733 3.534V3.732h-18 667zm14.769 13.722L24.439 7.423h10.597v10.032zm-3.29 4.468h-11.81V10.378h.835v10.764h985v.782zm-9.021 4.797-.436.898-.436-.898h-.366l.637 1.198v.698h.331v-.698 635"/>
    </symbol>
    <symbol id="Logo-2" viewBox="0 0 57 32">
      <path d="M26.727 3.165h-.073a7.542 7.542 0 0 0-.336-.012h-.243c-.212 0-.428 0 5-.642.016-.016-.001-.032-.001-.049 0-1.944.11-3.848.596-5.609M19.06 24.113a.788.788 0 0 0-.6-.243c0 119-.002-.237.021-.347.065-.101.04-.193.101-.27M22.202 24.09a.941.941 0 0 0-.602-.222c-.108 0-.215.02-.316 0 57-.103.037-.198.093-.279.165-.088.079-.158.175-.205.283-.053.124-.079.257-.077"/>
      <path d="M26.329 27.573v-3.674h-.509l-.668 1.945h-.009l-.673-1.945h-.503v3.674h.525v-2 235h.009l.514 1.58h.262l.518-1.58h.009v2.235h.525zM29.311 24.157a.727.727 0 0 0-.297-.201c-.123-.04-.251-.059-.38 0M31.791 23.899h-.429l-.809 3.674h.523l.154-.789h.714l.154.789h.524l-.83-3M35.173 26.112h-.009l-.791-2.213h-.503v3.674h.523v-2.209h.011l.8 2.209h492v-3.674h-.523v2.213z"/>
      <path d="m38.372 23.899-.421 1.461h-.011l-.421-1.461h-.554l.719 2.121v1.553h.524v-1 553l.719-2.121h-.554zM17.6 28.61h.252v.708h.171v-.708h.251v-.145h-.675v.145z"/>
      <path d="m19.721 28.465-.331.853h.182l.07-.194h.34l.073.194h.186l-.339-.853h182zm-.027.516.116-.316.116.316h-.232z"/>
      <path d="M21.818 29.004h.197v.11a.332.332 0 0 1-.202.072c-.034.002-.069 0 4-.1"/>
      <path d="M23.959 28.465h-.173v.853h.598v-.145h-.425v-.708zM25.769 28.465h-.173v.853h.173v-.853zM27.539 29.035l-.349-.57h-.167v.853h.161v-.557l.343.557h.171v-.853h158v.57z"/>
      <path d="M29.14 28.943h.425v-.145h-.425v-.187h.457v-.145h-.63v.853h.648v-.145h475v-.231z"/>
      <path d="M33.02 28.802h-.336v-.336h-.171v.853h.171v-.373h.336v.373h.171v-.853h171v.336z"/>
      <path d="M34.629 28.943h.426v-.145h-.426v-.187h.459v-.145h-.63v.853h.646v-.145h475v-.231z"/>
      <path d="M36.812 28.943c.148-.023.224-.102.224-.237.004-.036-.001-.073-.016 0M38.458 28.943h.425v-.145h-.425v-.187h.459v-.145h-.631v.853h.648v-.145h475v-.231z"/>
    </symbol>
    <symbol id="Logo-3" viewBox="0 0 59 32">
      <path d="M23.793 22.644c.006 0 .011.001.016.003l.013.008h.076M25.984 22.28a.633.633 0 0 1-.051.256c-.031.074-.08.142-.143 0M27.479 22.496l.02.046.022-.046c.008-.015.015-.031.025 0M29.302 22.434v.466h-.19v-1.243h.423a.934.934 0 0 1 .236.027c.061 0 15 .118.042.167.077.042.034.075.075.095.122.022.051.033.105.032.159.001.055-.011.109-.035.159-.023.048-.058.09-.102.124-.049.037 0 106 .066-.168.082-.074.021-.151.03"/>
      <path d="M31.851 22.902h-.15a.076.076 0 0 1-.042-.012c-.011-.008-.019-.018 0 25M32.671 21.662a.076.076 0 0 1 .028.022l.83.939c0-.015 0-.03 0 0M35.097 22.407v.494h-.19v-.494l-.525-.75h.17c.015-.001.029.003.041 0 11 .01.008.019.017.026M27.385 19.567c.082.009.166.017.25.023 1.28-.497 2.362-1.311 3.112-2M26.881 19.51l.038.007c1.288-.801 2.271-1.919 2.82-3.209s.64-2.695.261-4M33.693 15.244c-.341 1.338-1.17 2.545-2.363 3.441a7.477 7.477 0 0 1-1.123.7c.972-.248 1.865-.687 2.61-1.282s1.324-1.332 1.69-2.152l-.815-.707z"/>
      <path d="m33.374 15.047-1.16-1.008c-.022 1.149-.398 2.272-1.089 3.252s-1.671 1.781-2.838 2M27.049 9.795l-1.384-1.204c-1.237.415-2.301 1.145-3.052 2.095s-1.156 2.074-1.159 3M36.57 14.862c-.005-1.51-.698-2.958-1.927-4.026s-2.895-1.67-4.633-1.674c-.803 0 1-1.6.128-2.349"/>
    </symbol>
    <symbol id="Logo-4" viewBox="0 0 57 32">
      <path d="M12.878 11.255h-.002c-1.279 0-2.316.921-2.316 2.058v.001c0 1.137 1.037 2.058 2 316M29.971 10.597c-.004-1.579-.711-3.092-1.967-4.208s-2.958-1.745-4.735-1.749c-1 777 .003-3.48.631-4.737"/>
      <path d="M5.867 22.16c.003 1.098.496 2.151 1.369 2.928s2.058 1.215 3.294 1.218c1.236-.003 2.42-.441 3.294-1.218s1.366-1.829 1.37-2.927v-6.057s-9.327.924-9.327 6.056zM19.956 22.647h-.9v.93h-.469v-2.275h1.481v.38h-1.012v.588h.9v.378zM22.209 22"/>
    </symbol>
    <symbol id="Logo-5" viewBox="0 0 57 32">
      <path d="M14.27 23.859c.13.147.199.332.196.521.007.123-.017.247-.07 0M17.371 25.278l-.844-1.291h-.317v1.291h-.726v-3.302h1.374c.346-.022.689.078.957.281.192.179.308.415.327.666s-.061.499-.224.7c-.17.178-.401 0 296-.655"/>
      <path d="M21.339 24.614h-1.446l-.255.665h-.761l1.328-3.265h.823l1.323 3.265h-.761v25M26.305 25.278h-.721l-1.616-2.245v2.245h-.719v-3.302h.719l1.616 2.258v-2.258h721v3.302z"/>
      <path d="M30.417 24.488a1.501 1.501 0 0 1-.652.582c-.314.145-.662.217-1.013 0M21.79 3.609s9.301 3.215 9.103 7.867v7.869s-9.294-3.217-9.1-7.869l-.004-7M39.179 17.503a13.494 13.494 0 0 1 5.909-1.994v-2.463c-2.444.862-4.517 2.426-5 909"/>
      <path d="M38.124 18.245c1.438-2.651 3.93-4.696 6.964-5.715V5.432s-13.245 4.58-12.965 11M36.864 22.407c.07-.777.225-1.546.463-2.294-1.599 1.725-2.568 3.866-2.77 6 122-.019.213-.03.426-.035.645.752-.331 1.628-.744 2.548-1.229-.235-1.067 0 304-2.159"/>
      <path d="M37.391 22.447a10.17 10.17 0 0 0 .164 2.938c3.619-1.983 7.685-5.046 7.528-8"/>
    </symbol>
    <symbol id="Logo-6" viewBox="0 0 57 32">
      <path d="M28.493 14.618a1.58 1.58 0 0 1-.323-1.061v-1.538c0-.471.107-.83 0 321M32.137 14.633c-.221-.239-.332-.588-.332-1.05v-1.617c0-.457.11-.802 0 332M35.735 10.626h.942l.708 2.984.725-2.984h.917l.092 4.308h-.678l-.072-2.994v699M40.176 10.626h1.468c.846 0 1.268.408 1.268 1.223 0 .781-.445 1.171-1.335 1M44.218 10.626h.973l.998 4.308h-.844l-.197-.993h-.868l-.203.993h-.857v998M46.996 10.626h.634l1.214 2.457v-2.457h.752v4.308h-.603l-1.221-2.565v2.565h777l.002-4.308z"/>
      <path d="m51.357 13.291-1.009-2.659h.85l.616 1.708.578-1.708h.832l-.997 2.659v1.642h87v-1.642zM29.892 16.817v.225h-.739v1.75h-.31v-1.75H28.1v-.225h1.792zM32.209 18.793h-.239a.105.105 0 0 1-.067-.019c-.018-.011-.032-.027 0 40M33.771 18.599a1.018 1.018 0 0 0 .315-.023c0 44-.009.088-.021.13-.036.04-.014.08-.031.121M36.659 18.567h.989v.225h-1.292v-1.976h.31l-.007 1.75zM38.678 18.792h-.31v-1.976h.31v1.976zM39.83 16.826a.151.151 0 0 1 .047.036l1.324 1.489c-.002-.023-.002 0 47 0h-.044"/>
      <path d="M43.753 16.817v.217h-1.098v.652h.89v.21h-.89v.674h1.098v.217h-1.417v-1.971h418zM11.286 4.616l13.757 3.372v11.818l-13.757-3.371V4.616zm-.882-1.007V17.01l15.52 3"/>
      <path d="M18.722 27.036 3.2 23.227V9.828l15.522 3.807v13.401zM10.661 4.465l13.578 3.33-5.774 4.987L4.885 9.45l5.776-4.985zm-.257-.856-7.204 6 219 15.522 3.807 7.202-6.219-15.52M19.595 26.282l6.329-5.465-6.329-1.553v7.018z"/>
    </symbol>
  </defs>
</svg>